<svg xmlns="http://www.w3.org/2000/svg" viewBox="0 0 36.1 36.2">
    <defs>
        <style>.cls-1{fill:none;stroke:#565a5c;stroke-linecap:round;stroke-linejoin:round;stroke-width:1.5px;}</style>
    </defs>
    <g id="Layer_2" data-name="Layer 2">
        <g id="Layer_1-2" data-name="Layer 1">
            <path class="cls-1" d="M19.19,17.08h0a1.72,1.72,0,0,1,2.23.85l1.92,4.16a1.8,1.8,0,0,1,1-.94h0a1.73,1.73,0,0,1,2.13.64,1.75,1.75,0,0,1,1-1.17h0a1.72,1.72,0,0,1,2.12.64,1.8,1.8,0,0,1,1-1.17h0a1.68,1.68,0,0,1,2.24.85l2.18,6.25c1.77,5.07-4.56,10.43-9.31,7.36l-8.23-5.32a1.6,1.6,0,0,1-.39-2.29,4.61,4.61,0,0,1,3.39.16l1.55,1-3.85-8.86a1.67,1.67,0,0,1,1-2.17Z"></path>
            <polyline class="cls-1" points="5.11 13.03 6.36 14.66 8.91 11.36"></polyline>
            <line class="cls-1" x1="11.74" y1="13.34" x2="19.94" y2="13.34"></line>
            <polyline class="cls-1" points="5.11 18.24 6.36 19.87 8.91 16.57"></polyline>
            <line class="cls-1" x1="11.74" y1="18.55" x2="18.09" y2="18.55"></line>
            <polyline class="cls-1" points="5.07 23.42 6.32 25.05 8.87 21.75"></polyline>
            <path class="cls-1" d="M11.71,23.73H19.9M4.61,6.28H12.8"></path>
            <path class="cls-1" d="M16.35.75H2A1.22,1.22,0,0,0,.75,2v29.6A1.22,1.22,0,0,0,2,32.79H23.08M24.3,20.56V8.7m0,0H17.57a1.22,1.22,0,0,1-1.22-1.22V.75l8,8Z"></path>
        </g>
    </g>
</svg>